# AST/ASF file generated using VICON BodyLanguage
# -----------------------------------------------
:version 1.10
:name VICON
:units
  mass 1.0
  length 0.45
  angle deg
:documentation
   .ast/.asf automatically generated from VICON data using
   VICON BodyBuilder and BodyLanguage model FoxedUp or BRILLIANT.MOD
:root
   order TX TY TZ RX RY RZ
   axis XYZ
   position 0 0 0  
   orientation 0 0 0 
:bonedata
  begin
     id 1 
     name lhipjoint
     direction 0.623415 -0.642378 0.445763 
     length 2.49859 
     axis 0 0 0  XYZ
  end
  begin
     id 2 
     name lfemur
     direction 0.34202 -0.939693 0  
     length 6.69689  
     axis 0 0 20  XYZ
    dof rx ry rz
    limits (-160.0 20.0)
           (-70.0 70.0)
           (-60.0 70.0)
  end
  begin
     id 3 
     name ltibia
     direction 0.34202 -0.939693 0   
     length 7.37574   
     axis 0 0 20   XYZ
    dof rx
    limits (-10.0 170.0)
  end
  begin
     id 4 
     name lfoot
     direction 0.084323 -0.231675 0.969132   
     length 2.09111   
     axis -90 7.62852e-016 20   XYZ
    dof rx rz
    limits (-45.0 90.0)
           (-70.0 20.0)
  end
  begin
     id 5 
     name ltoes
     direction 1.5357e-011 -4.21957e-011 1   
     length 1.04989   
     axis -90 7.62852e-016 20   XYZ
    dof rx
    limits (-90.0 20.0)
  end
  begin
     id 6 
     name rhipjoint
     direction -0.605402 -0.653903 0.45376   
     length 2.45455  
     axis 0 0 0  XYZ 
  end
  begin
     id 7 
     name rfemur
     direction -0.34202 -0.939693 0   
     length 6.64523   
     axis 0 0 -20   XYZ
    dof rx ry rz
    limits (-160.0 20.0)
           (-70.0 70.0)
           (-70.0 60.0)
  end
  begin
     id 8 
     name rtibia
     direction -0.34202 -0.939693 0   
     length 7.3339   
     axis 0 0 -20   XYZ
    dof rx
    limits (-10.0 170.0)
 end
 begin
     id 9 
     name rfoot
     direction -0.120854 -0.332043 0.93549   
     length 2.23135  
     axis -90 -7.62852e-016 -20   XYZ
    dof rx rz
    limits (-45.0 90.0)
           (-20.0 70.0)
  end
  begin
     id 10 
     name rtoes
     direction -1.53563e-011 -4.21914e-011 1   
     length 1.10614   
     axis -90 -7.62852e-016 -20   XYZ
    dof rx
    limits (-90.0 20.0)
  end
  begin
     id 11 
     name lowerback
     direction 0.0319682 0.998615 -0.0417941   
     length 2.02718   
     axis 0 0 0   XYZ
    dof rx ry rz
    limits (-20.0 45.0)
           (-30.0 30.0)
           (-30.0 30.0)
  end
  begin
     id 12 
     name upperback
     direction 7.63181e-005 0.995808 0.0914691   
     length 1.97539   
     axis 0 0 0   XYZ
    dof rx ry rz
    limits (-20.0 45.0)
           (-30.0 30.0)
           (-30.0 30.0)
  end
  begin
     id 13 
     name thorax
     direction -0.016423 0.993627 0.111514   
     length 2.00349   
     axis 0 0 0   XYZ
    dof rx ry rz
    limits (-20.0 45.0)
           (-30.0 30.0)
           (-30.0 30.0)
  end
  begin
     id 14 
     name lowerneck
     direction -0.174763 0.981668 -0.0760716   
     length 1.71436   
     axis 0 0 0   XYZ
    dof rx ry rz
    limits (-20.0 45.0)
           (-30.0 30.0)
           (-30.0 30.0)
  end
  begin
     id 15 
     name upperneck
     direction 0.345458 0.934587 -0.0848868   
     length 1.72805   
     axis 0 0 0   XYZ
    dof rx ry rz
    limits (-20.0 45.0)
           (-30.0 30.0)
           (-30.0 30.0)
  end
  begin
     id 16
     name head
     direction 0.13001 0.989848 -0.0574291  
     length 1.767  
     axis 0 0 0   XYZ
    dof rx ry rz
    limits (-20.0 45.0)
           (-30.0 30.0)
           (-30.0 30.0)
  end
  begin
     id 17 
     name lclavicle
     direction 0.952951 0.290122 0.0878234  
     length 3.54654  
     axis 0 0 0   XYZ
    dof ry rz
    limits (-20.0 10.0)
           (0.0 20.0)
  end
  begin
     id 18 
     name lhumerus
     direction 1 -4.48957e-011 -4.56525e-028   
     length 5.19807   
     axis 180 -30 -90   XYZ
    dof rx ry rz
    limits (-60.0 90.0)
           (-90.0 90.0)
           (-90.0 90.0)
  end
  begin
     id 19
     name lradius
     direction 1 -4.48979e-011 -2.0317e-027   
     length 3.0937   
     axis 180 -30 -90   XYZ
    dof rx
    limits (-10.0 170.0)
  end
  begin
     id 20
     name lwrist
     direction 1 -4.48953e-011 -3.05809e-027   
     length 1.54685   
     axis 8.48514e-016 90 90   XYZ
    dof ry
    limits (-180.0 0.0)
 end
  begin
     id 21 
     name lhand
     direction 1 -4.48952e-011 -6.11639e-027   
     length 0.672632   
     axis 3.9013e-015 90 90   XYZ
    dof rx rz
    limits (-90.0 90.0)
           (-45.0 45.0)
  end
  begin
     id 22 
     name lfingers
     direction 1 -4.48925e-011 -1.22426e-026   
     length 0.542293   
     axis 7.80276e-015 90 90   XYZ
    dof rx
    limits (0.0 90.0)
  end
  begin
     id 23
     name lthumb
     direction 0.707107 -6.3486e-011 0.707107   
     length 0.778628   
     axis -90 45 5.37419e-014   XYZ
    dof rx rz
    limits (-45.0 45.0)
           (-45.0 45.0)
  end
  begin
     id 24 
     name rclavicle
     direction -0.960732 0.273675 -0.0457849   
     length 3.52079  
     axis 0 0 0   XYZ 
    dof ry rz
    limits (-10.0 20.0)
           (-20.0 0.0)
  end
  begin
     id 25 
     name rhumerus
     direction -1 -4.48976e-011 -1.63613e-027  
     length 5.45222   
     axis 180 30 90   XYZ
    dof rx ry rz
    limits (-90.0 60.0)
           (-90.0 90.0)
           (-90.0 90.0)
  end
  begin
     id 26 
     name rradius
     direction -1 -4.48957e-011 -7.00033e-028   
     length 3.01284   
     axis 180 30 90   XYZ
    dof rx
    limits (-10.0 170.0)
  end
  begin
     id 27 
     name rwrist
     direction -1 -4.48983e-011 -3.05543e-027   
     length 1.50642   
     axis 8.48514e-016 -90 -90   XYZ
    dof ry
    limits (-180.0 0.0)
  end
  begin
     id 28
     name rhand
     direction -1 -4.48984e-011 -6.11072e-027   
     length 0.622296   
     axis 3.9013e-015 -90 -90   XYZ
    dof rx rz
    limits (-90.0 90.0)
           (-45.0 45.0)
  end
  begin
     id 29
     name rfingers
     direction -1 -4.48865e-011 -1.22637e-026   
     length 0.501711   
     axis 7.80276e-015 -90 -90   XYZ
    dof rx
    limits (0.0 90.0)
  end
  begin
     id 30
     name rthumb
     direction -0.707107 -6.34932e-011 0.707107   
     length 0.72036   
     axis -90 -45 -5.37419e-014   XYZ
    dof rx rz
    limits (-45.0 45.0)
           (-45.0 45.0)
  end
:hierarchy
  begin
    root lhipjoint rhipjoint lowerback
    lhipjoint lfemur
    lfemur ltibia
    ltibia lfoot
    lfoot ltoes
    rhipjoint rfemur
    rfemur rtibia
    rtibia rfoot
    rfoot rtoes
    lowerback upperback
    upperback thorax
    thorax lowerneck lclavicle rclavicle
    lowerneck upperneck
    upperneck head
    lclavicle lhumerus
    lhumerus lradius
    lradius lwrist
    lwrist lhand lthumb
    lhand lfingers
    rclavicle rhumerus
    rhumerus rradius
    rradius rwrist
    rwrist rhand rthumb
    rhand rfingers
  end

#!OML:ASF H:\Not Pregnant\Project 1\Capture day 1\Session 1\non-pregnant.ASF
:FULLY-SPECIFIED
:DEGREES
90
root 1.6409 15.8439 21.1859 28.5426 -45.7934 -11.9701
lowerback -0.374314 0.248975 11.0828
upperback -4.85474 0.60896 2.67557
thorax -4.82227 -0.133702 -3.4078
lowerneck 39.3817 -13.5719 -29.238
upperneck -12.0068 -28.2786 43.4285
head 2.2091 -18.8112 22.8476
rclavicle 8.07563e-014 1.98785e-015
rhumerus -35.9672 18.8217 -93.7434
rradius 30.6642
rwrist 17.2218
rhand -9.1166 1.12007
rfingers 7.12502
rthumb 16.8342 -28.1702
lclavicle 8.07563e-014 1.98785e-015
lhumerus -41.2439 -1.53408 79.5833
lradius 45.1579
lwrist 39.7087
lhand -23.1934 -17.6539
lfingers 7.12502
lthumb 3.25636 12.301
rfemur -21.0729 17.0656 22.3258
rtibia 25.2883
rfoot -22.7151 13.5328
rtoes -16.1716
lfemur -46.0978 -6.04444 5.60228
ltibia 24.1068
lfoot -12.8225 0.143682
ltoes -42.6973
91
root 1.66633 15.854 21.092 28.479 -44.8548 -11.7135
lowerback -0.207311 0.290104 11.2211
upperback -4.89559 0.694811 2.6037
thorax -4.95032 -0.10519 -3.563
lowerneck 38.7532 -13.3971 -29.1889
upperneck -11.7371 -27.9171 43.488
head 2.22436 -18.5876 22.906
rclavicle 1.28713e-014 2.88238e-014
rhumerus -36.24 19.7279 -93.9927
rradius 31.0425
rwrist 17.1928
rhand -8.83014 1.17913
rfingers 7.12502
rthumb 17.1099 -28.0875
lclavicle 1.28713e-014 2.88238e-014
lhumerus -41.4571 -0.785243 79.1392
lradius 44.971
lwrist 39.8286
lhand -23.3716 -17.8245
lfingers 7.12502
lthumb 3.08423 12.1329
rfemur -21.6257 16.9931 22.6391
rtibia 25.6226
rfoot -22.7929 12.163
rtoes -17.0462
lfemur -46.3865 -4.88822 4.84332
ltibia 24.5665
lfoot -12.3309 1.12536
ltoes -42.8413
92
root 1.6902 15.8637 20.9986 28.4027 -43.9508 -11.445
lowerback -0.0435249 0.335385 11.2944
upperback -4.91943 0.783296 2.529
thorax -5.05689 -0.0710893 -3.68624
lowerneck 38.1038 -13.2358 -29.1319
upperneck -11.4843 -27.5628 43.564
head 2.24453 -18.3676 22.9657
rclavicle -9.28821e-014 -6.16232e-015
rhumerus -36.4771 20.4647 -94.1582
rradius 31.4017
rwrist 17.1975
rhand -8.65684 1.21893
rfingers 7.12502
rthumb 17.2767 -28.0331
lclavicle -9.28821e-014 -6.16232e-015
lhumerus -41.6439 -0.0416999 78.6911
lradius 44.7116
lwrist 39.9294
lhand -23.4752 -17.9784
lfingers 7.12502
lthumb 2.98421 11.9804
rfemur -22.209 17.0246 22.894
rtibia 26.0063
rfoot -22.7679 10.8284
rtoes -17.8022
lfemur -46.6773 -3.74656 4.03104
ltibia 25.1987
lfoot -11.8621 1.93752
ltoes -42.7797
93
root 1.71197 15.8732 20.9057 28.2971 -43.0744 -11.1443
lowerback 0.107437 0.371433 11.2878
upperback -4.9238 0.854352 2.46073
thorax -5.13696 -0.0399892 -3.75856
lowerneck 37.4383 -13.1003 -29.0455
upperneck -11.2726 -27.2105 43.621
head 2.24645 -18.1417 22.9997
rclavicle -6.44559e-014 -3.4191e-014
rhumerus -36.6703 21.0509 -94.2398
rradius 31.7248
rwrist 17.2452
rhand -8.6092 1.19344
rfingers 7.12502
rthumb 17.3226 -28.0546
lclavicle -6.44559e-014 -3.4191e-014
lhumerus -41.8028 0.715745 78.2349
lradius 44.3794
lwrist 40.0383
lhand -23.5381 -18.1133
lfingers 7.12502
lthumb 2.9234 11.8464
rfemur -22.8006 17.0808 23.0903
rtibia 26.4088
rfoot -22.6779 9.58818
rtoes -18.4301
lfemur -46.9652 -2.59734 3.13659
ltibia 25.974
lfoot -11.4682 2.5034
ltoes -42.5246
94
root 1.73182 15.8825 20.8148 28.1286 -42.209 -10.8014
lowerback 0.264688 0.400722 11.2245
upperback -4.89988 0.91331 2.38227
thorax -5.19144 -0.0101062 -3.81047
lowerneck 36.7601 -12.9614 -28.9658
upperneck -11.0853 -26.852 43.7081
head 2.25074 -17.9158 23.0552
rclavicle 8.84592e-015 2.44505e-014
rhumerus -36.7934 21.398 -94.2109
rradius 31.9893
rwrist 17.3433
rhand -8.63896 1.07669
rfingers 7.12502
rthumb 17.294 -28.1738
lclavicle 8.84592e-015 2.44505e-014
lhumerus -41.9186 1.43581 77.7874
lradius 43.9635
lwrist 40.1442
lhand -23.5511 -18.1904
lfingers 7.12502
lthumb 2.91085 11.7695
rfemur -23.3523 17.106 23.238
rtibia 26.8125
rfoot -22.5464 8.45942
rtoes -18.9465
lfemur -47.2184 -1.5097 2.18335
ltibia 26.8611
lfoot -11.1524 2.88278
ltoes -42.2791
95
root 1.74984 15.8917 20.7262 27.9055 -41.3508 -10.4214
lowerback 0.421592 0.421646 11.1077
upperback -4.84881 0.957017 2.2989
thorax -5.21846 0.0169772 -3.83777
lowerneck 36.0723 -12.8207 -28.8894
upperneck -10.9286 -26.4848 43.8142
head 2.25041 -17.6866 23.1256
rclavicle -3.54334e-014 1.55052e-014
rhumerus -36.8427 21.4997 -94.0583
rradius 32.1749
rwrist 17.5487
rhand -8.77596 0.981561
rfingers 7.12502
rthumb 17.1621 -28.2805
lclavicle -3.54334e-014 1.55052e-014
lhumerus -41.9926 2.10099 77.3668
lradius 43.463
lwrist 40.2576
lhand -23.5598 -18.218
lfingers 7.12502
lthumb 2.90251 11.742
rfemur -23.8602 17.0525 23.3476
rtibia 27.2088
rfoot -22.3976 7.47105
rtoes -19.3658
lfemur -47.4306 -0.485948 1.18134
ltibia 27.8346
lfoot -10.9106 3.07527
ltoes -42.1669
96
root 1.76634 15.9004 20.6402 27.638 -40.5193 -10.0121
lowerback 0.586864 0.443519 10.9333
upperback -4.78157 0.999542 2.21097
thorax -5.23289 0.047169 -3.83826
lowerneck 35.3921 -12.6631 -28.8403
upperneck -10.7915 -26.1067 43.941
head 2.2498 -17.4546 23.2235
rclavicle 2.54941e-014 4.7112e-014
rhumerus -36.8416 21.358 -93.7838
rradius 32.2813
rwrist 17.8587
rhand -9.01865 0.935065
rfingers 7.12502
rthumb 16.9285 -28.3472
lclavicle 2.54941e-014 4.7112e-014
lhumerus -42.0371 2.69128 76.9959
lradius 42.8766
lwrist 40.3621
lhand -23.6214 -18.2202
lfingers 7.12502
lthumb 2.84297 11.7406
rfemur -24.3275 16.9194 23.4165
rtibia 27.5938
rfoot -22.2438 6.6355
rtoes -19.6876
lfemur -47.5888 0.451787 0.158853
ltibia 28.8778
lfoot -10.7477 3.11062
ltoes -42.159
97
root 1.78191 15.9087 20.5571 27.3543 -39.7145 -9.60473
lowerback 0.766282 0.471666 10.7298
upperback -4.71103 1.05034 2.12058
thorax -5.25079 0.0825442 -3.82588
lowerneck 34.7297 -12.4888 -28.8149
upperneck -10.6629 -25.7197 44.0765
head 2.24727 -17.2199 23.3418
rclavicle 5.11871e-014 -3.598e-014
rhumerus -36.8494 21.0141 -93.4169
rradius 32.3643
rwrist 18.2094
rhand -9.34421 0.903307
rfingers 7.12502
rthumb 16.6151 -28.4055
lclavicle 5.11871e-014 -3.598e-014
lhumerus -42.0675 3.17452 76.6867
lradius 42.2121
lwrist 40.4816
lhand -23.7329 -18.1707
lfingers 7.12502
lthumb 2.73533 11.7915
rfemur -24.7625 16.7084 23.4659
rtibia 27.9682
rfoot -22.0978 5.95332
rtoes -19.9255
lfemur -47.6937 1.27821 -0.828864
ltibia 29.9824
lfoot -10.6626 3.02328
ltoes -42.2398
98
root 1.7968 15.9163 20.4767 27.0563 -38.9282 -9.19927
lowerback 0.949222 0.515272 10.5209
upperback -4.63423 1.12023 2.01717
thorax -5.26135 0.127821 -3.82531
lowerneck 34.1021 -12.3043 -28.8121
upperneck -10.5494 -25.3344 44.23
head 2.24493 -16.9912 23.4874
rclavicle -2.78299e-015 -1.8487e-014
rhumerus -36.8524 20.4404 -92.9595
rradius 32.4165
rwrist 18.5812
rhand -9.74112 0.88421
rfingers 7.12502
rthumb 16.2329 -28.4562
lclavicle -2.78299e-015 -1.8487e-014
lhumerus -42.0675 3.5288 76.4461
lradius 41.4725
lwrist 40.6151
lhand -23.8976 -18.0884
lfingers 7.12502
lthumb 2.57629 11.8758
rfemur -25.1717 16.4316 23.4987
rtibia 28.3356
rfoot -21.9554 5.40728
rtoes -20.0644
lfemur -47.7499 1.97031 -1.75848
ltibia 31.1442
lfoot -10.6747 2.80532
ltoes -42.1559
99
root 1.81121 15.9226 20.3983 26.7701 -38.1389 -8.82727
lowerback 1.13571 0.566209 10.3317
upperback -4.55635 1.20006 1.91596
thorax -5.27178 0.177081 -3.83391
lowerneck 33.5034 -12.1212 -28.814
upperneck -10.4504 -24.9537 44.3758
head 2.23509 -16.7649 23.6342
rclavicle -5.9039e-014 -4.69132e-014
rhumerus -36.8977 19.7384 -92.4541
rradius 32.5008
rwrist 18.8493
rhand -10.1695 0.810045
rfingers 7.12502
rthumb 15.8204 -28.5635
lclavicle -5.9039e-014 -4.69132e-014
lhumerus -42.0468 3.79159 76.2561
lradius 40.682
lwrist 40.7486
lhand -24.0994 -17.9288
lfingers 7.12502
lthumb 2.38138 12.0376
rfemur -25.5629 16.1095 23.5473
rtibia 28.6963
rfoot -21.8127 4.95834
rtoes -20.117
lfemur -47.7738 2.52868 -2.58948
ltibia 32.3633
lfoot -10.7866 2.47151
ltoes -41.8166
100
root 1.82514 15.9275 20.3219 26.492 -37.3268 -8.48551
lowerback 1.32496 0.621587 10.1762
upperback -4.47695 1.28632 1.8122
thorax -5.28147 0.22795 -3.86443
lowerneck 32.9378 -11.9386 -28.8299
upperneck -10.3593 -24.5857 44.5292
head 2.22804 -16.5486 23.7946
rclavicle -1.18575e-013 -1.09332e-014
rhumerus -36.9634 18.8878 -91.9043
rradius 32.5904
rwrist 18.9898
rhand -10.6 0.689426
rfingers 7.12502
rthumb 15.4058 -28.7165
lclavicle -1.18575e-013 -1.09332e-014
lhumerus -42.0023 3.95878 76.11
lradius 39.847
lwrist 40.8537
lhand -24.3128 -17.6897
lfingers 7.12502
lthumb 2.17525 12.279
rfemur -25.9324 15.7576 23.6167
rtibia 29.0484
rfoot -21.6652 4.55821
rtoes -20.1186
lfemur -47.7744 2.94223 -3.31697
ltibia 33.6382
lfoot -10.9686 2.05522
ltoes -41.2568
101
root 1.83813 15.9309 20.2474 26.2261 -36.4574 -8.17468
lowerback 1.50045 0.657835 10.0639
upperback -4.39814 1.34659 1.72103
thorax -5.28792 0.264294 -3.90417
lowerneck 32.3966 -11.7745 -28.8155
upperneck -10.285 -24.2236 44.6419
head 2.1995 -16.3296 23.9182
rclavicle 4.96962e-014 -6.16232e-015
rhumerus -37.0404 17.9595 -91.3464
rradius 32.6729
rwrist 18.9796
rhand -11.0288 0.49408
rfingers 7.12502
rthumb 14.9927 -28.9432
lclavicle 4.96962e-014 -6.16232e-015
lhumerus -41.9555 4.09251 75.9721
lradius 38.9957
lwrist 40.8986
lhand -24.5241 -17.3777
lfingers 7.12502
lthumb 1.97119 12.593
rfemur -26.2749 15.3657 23.7257
rtibia 29.3847
rfoot -21.5201 4.1675
rtoes -20.1212
lfemur -47.7722 3.24302 -3.95574
ltibia 34.9665
lfoot -11.2138 1.53616
ltoes -40.501
102
root 1.85 15.9335 20.1757 25.9673 -35.5207 -7.89019
lowerback 1.66043 0.67822 9.999
upperback -4.3182 1.3852 1.63655
thorax -5.28734 0.288252 -3.96181
lowerneck 31.8816 -11.6151 -28.8054
upperneck -10.2172 -23.8741 44.7532
head 2.1711 -16.1185 24.0432
rclavicle -4.92986e-014 1.74931e-014
rhumerus -37.137 16.9641 -90.7832
rradius 32.7553
rwrist 18.7765
rhand -11.4287 0.225293
rfingers 7.12502
rthumb 14.6075 -29.2403
lclavicle -4.92986e-014 1.74931e-014
lhumerus -41.904 4.20343 75.834
lradius 38.1355
lwrist 40.8133
lhand -24.6784 -16.9508
lfingers 7.12502
lthumb 1.82218 13.0212
rfemur -26.5777 14.9494 23.8703
rtibia 29.6972
rfoot -21.3774 3.75236
rtoes -20.1439
lfemur -47.7656 3.43015 -4.51368
ltibia 36.3388
lfoot -11.4945 0.950624
ltoes -39.6485
